<?xml version="1.0" encoding="UTF-8"?>
<svg version="1.1" xmlns="http://www.w3.org/2000/svg" width="512" height="512">
<path d="M0 0 C1.15384965 -0.00445784 2.30769929 -0.00891569 3.49651408 -0.01350862 C5.38373711 -0.01323207 5.38373711 -0.01323207 7.30908585 -0.01294994 C8.66674569 -0.01625197 10.02440456 -0.01997825 11.3820622 -0.02409142 C15.10767749 -0.0340815 18.83327667 -0.0378234 22.55890346 -0.04048073 C26.57963666 -0.04439284 30.60035721 -0.05397071 34.62108231 -0.0626936 C44.33028318 -0.08243517 54.03948506 -0.09252249 63.74870098 -0.10142139 C68.3268871 -0.10580913 72.90507208 -0.11117478 77.48325729 -0.11641026 C92.71348073 -0.13342223 107.94370346 -0.1479139 123.17393494 -0.155159 C127.12427903 -0.15706874 131.07462312 -0.15898909 135.02496719 -0.16094494 C136.00674609 -0.16142868 136.98852498 -0.16191242 138.00005475 -0.16241082 C153.88550457 -0.17070176 169.77087886 -0.19602298 185.65629575 -0.22852562 C201.98525331 -0.26166179 218.31417258 -0.27961378 234.64316392 -0.28280324 C243.80317128 -0.28496255 252.96306859 -0.29362586 262.12304306 -0.31926441 C269.92836473 -0.34106141 277.73354961 -0.34897797 285.53889826 -0.33929763 C289.51485004 -0.33477847 293.49052014 -0.33649829 297.46643257 -0.35605907 C316.32283678 -0.44373674 334.51857431 -0.3352304 352.08014297 7.44672108 C353.12440445 7.89446888 353.12440445 7.89446888 354.18976212 8.35126209 C379.47308121 19.51642731 399.04206036 40.8843242 409.43170547 66.26263905 C412.68400897 74.8245067 415.26074585 83.81188884 415.27686405 93.00184917 C415.2813219 94.18342503 415.28577974 95.36500089 415.29037267 96.58238208 C415.29009613 98.52373529 415.29009613 98.52373529 415.289814 100.50430775 C415.29311483 101.896241 415.29684087 103.28817329 415.30095547 104.68010437 C415.31095894 108.5049834 415.31468962 112.32984674 415.31734478 116.154737 C415.32125285 120.28040735 415.33083097 124.40606534 415.33955765 128.53172779 C415.35930983 138.49643095 415.36938756 148.46113511 415.37828544 158.42585295 C415.38267115 163.12197923 415.3880373 167.81810438 415.39327431 172.51422977 C415.41028679 188.13216067 415.42477937 203.75009086 415.43202305 219.36802959 C415.43393285 223.41997624 415.4358532 227.47192289 415.43780899 231.52386951 C415.43829273 232.53092576 415.43877647 233.537982 415.43927487 234.5755551 C415.44756919 250.87695193 415.47289593 267.17827524 415.50538967 283.47963999 C415.53850086 300.22778598 415.55647555 316.97589465 415.55966729 333.72407353 C415.56182883 343.12265496 415.57052509 352.52112923 415.59612846 361.91967869 C415.61789114 369.92676332 415.62585866 377.93371477 415.61616168 385.94082563 C415.6116328 390.02170978 415.61342019 394.10231947 415.63292313 398.18316555 C415.65067001 401.92916249 415.64946511 405.67468708 415.63402583 409.42068984 C415.6305613 411.39669017 415.64658967 413.37269613 415.66363031 415.34862602 C415.47121202 442.42909349 401.11263101 466.62906852 382.40680313 485.30487537 C366.45960857 500.62406697 342.61780189 512.22844127 320.2512579 512.26844215 C319.08982476 512.2729 317.92839162 512.27735784 316.73176354 512.28195077 C315.46515084 512.28176641 314.19853814 512.28158205 312.89354324 512.2813921 C311.52692111 512.28469408 310.16029995 512.28842035 308.79368001 512.29253358 C305.04333097 512.30252407 301.29299793 512.30626562 297.54263747 512.30892289 C293.49533832 512.31283483 289.44805175 512.32241266 285.40076065 512.33113575 C275.62778996 512.35087704 265.85481826 512.36096428 256.08183262 512.36986354 C251.47412977 512.37425105 246.86642807 512.37961673 242.25872612 512.38485241 C226.93156517 512.40186382 211.60440492 512.4163559 196.27723598 512.42360115 C192.30178896 512.4255109 188.32634193 512.42743125 184.35089493 512.42938709 C182.86886128 512.4301127 182.86886128 512.4301127 181.35688756 512.43085297 C165.367298 512.43914547 149.37778343 512.46446959 133.38822659 512.49696777 C116.95418272 512.53009563 100.52017687 512.54805516 84.08609945 512.55124539 C74.86632054 512.5534054 65.64665094 512.56207898 56.42690468 512.58770657 C48.57141567 512.6094921 40.71606252 512.61742565 32.86054673 512.60773978 C28.85839111 512.60321745 24.85651534 512.60495944 20.85439873 512.62450123 C-9.95668973 512.76669917 -9.95668973 512.76669917 -23.85735703 508.13422108 C-24.78004285 507.83158502 -25.70272867 507.52894896 -26.65337467 507.21714211 C-28.7273655 506.50064854 -30.72244877 505.70042468 -32.73235703 504.82172108 C-33.43304306 504.52322254 -34.1337291 504.22472401 -34.85564804 503.91718006 C-59.84312448 492.9537272 -79.77574098 471.57825474 -90.00091171 446.44183826 C-95.17380336 432.50393295 -97.00832247 418.85483574 -96.99779892 404.06221485 C-97.00077004 402.75247021 -97.00374116 401.44272557 -97.00680232 400.0932917 C-97.01483187 396.4728762 -97.01665963 392.85248057 -97.01739979 389.23205721 C-97.01925747 385.32112866 -97.02680844 381.41021025 -97.033535 377.49928761 C-97.04709089 368.9534393 -97.05313899 360.40759571 -97.05754566 351.86173844 C-97.06031319 346.5193419 -97.06455151 341.17694714 -97.06904984 335.83455181 C-97.08123979 321.02544137 -97.09153908 306.21633237 -97.09492493 291.40721703 C-97.09514449 290.46020373 -97.09536406 289.51319043 -97.09559028 288.53747975 C-97.09580856 287.58827411 -97.09602683 286.63906847 -97.09625173 285.66109902 C-97.09669518 283.73783306 -97.09714175 281.81456711 -97.0975914 279.89130116 C-97.09781283 278.93730649 -97.09803426 277.98331182 -97.0982624 277.00040822 C-97.10220674 261.55738136 -97.11965089 246.11440178 -97.14295092 230.67139316 C-97.16671284 214.79325169 -97.17912901 198.9151339 -97.18029284 183.03697437 C-97.18120698 174.13135573 -97.18689298 165.22579869 -97.20511246 156.32019711 C-97.22057903 148.73376417 -97.22559555 141.14741187 -97.21737435 133.56096614 C-97.21349069 129.69656022 -97.21428435 125.83231635 -97.2284317 121.96793079 C-97.35262586 85.92487357 -91.06773149 56.10347143 -65.60735703 29.44672108 C-48.39367156 12.88215504 -24.36198708 0.0438598 0 0 Z " fill="#191919" transform="translate(96.85735702514648,-0.13422107696533203)"/>
<path d="M0 0 C11.2675255 9.69302412 21.22745422 24.47307454 22.4855957 39.65551758 C23.39371065 61.23265594 20.76130721 78.47226273 6.5 95.5625 C-5.40943313 108.17784599 -21.52859054 116.3491639 -38.890625 116.98828125 C-40.38529095 117.0197119 -41.88011266 117.04444423 -43.375 117.0625 C-44.06770996 117.0720874 -44.76041992 117.0816748 -45.47412109 117.09155273 C-51.01227595 117.05553967 -55.09953076 116.06815983 -60.75 114.8125 C-60.75 127.3525 -60.75 139.8925 -60.75 152.8125 C-76.59 152.8125 -92.43 152.8125 -108.75 152.8125 C-108.84054265 137.89524953 -108.91412231 122.97814125 -108.95724869 108.06068039 C-108.97781162 101.13312644 -109.00581092 94.20575625 -109.05175781 87.27832031 C-109.09611787 80.58690124 -109.11917043 73.89571202 -109.12950897 67.20413971 C-109.13687216 64.65739192 -109.15125046 62.11065397 -109.17292023 59.56398773 C-109.20216173 55.98351411 -109.20594722 52.40381693 -109.20410156 48.82324219 C-109.21848267 47.78169983 -109.23286377 46.74015747 -109.24768066 45.66705322 C-109.16493459 30.73093304 -102.01294475 15.51484172 -91.77734375 4.67578125 C-64.95158652 -19.97910545 -29.08615807 -22.29938786 0 0 Z " fill="#B95585" transform="translate(353.75,217.1875)"/>
<path d="M0 0 C47.52 0 95.04 0 144 0 C144 15.84 144 31.68 144 48 C127.83 48 111.66 48 95 48 C95 91.56 95 135.12 95 180 C79.49 180 63.98 180 48 180 C48 136.44 48 92.88 48 48 C32.16 48 16.32 48 0 48 C0 32.16 0 16.32 0 0 Z " fill="#D34C62" transform="translate(137,142)"/>
<path d="M0 0 C4.7210664 2.82026251 8.2794839 6.07068655 10.7734375 11.05859375 C11.30123017 17.27030745 11.51747393 22.81694275 7.7734375 28.05859375 C2.99116156 32.63294465 -0.53678756 34.79829295 -7.1015625 35.43359375 C-12.32994717 35.27605297 -16.05743878 33.20529759 -19.73828125 29.5625 C-24.17840722 24.46080798 -24.58128957 20.30724355 -24.50390625 13.78125 C-23.96735449 8.51397429 -20.95725685 5.5852399 -17.1640625 2.24609375 C-12.08355902 -1.5372599 -5.93714051 -2.51026467 0 0 Z " fill="#1B191A" transform="translate(317.2265625,250.94140625)"/>
</svg>
